<?xml version="1.0" standalone="no"?>
<!DOCTYPE svg PUBLIC "-//W3C//DTD SVG 20010904//EN"
 "http://www.w3.org/TR/2001/REC-SVG-20010904/DTD/svg10.dtd">
<svg version="1.0" xmlns="http://www.w3.org/2000/svg"
 width="1024.000000pt" height="1024.000000pt" viewBox="0 0 1024.000000 1024.000000"
 preserveAspectRatio="xMidYMid meet">

<g transform="translate(0.000000,1024.000000) scale(0.100000,-0.100000)"
fill="#000000" stroke="none">
<path d="M0 5120 l0 -5120 5120 0 5120 0 0 5120 0 5120 -5120 0 -5120 0 0
-5120z m5460 3535 c161 -8 289 -23 405 -46 621 -126 1141 -365 1628 -752 127
-100 406 -378 519 -517 445 -549 706 -1168 790 -1875 16 -142 17 -655 0 -790
-109 -885 -462 -1598 -1087 -2196 -381 -363 -889 -657 -1415 -818 -380 -117
-871 -177 -1251 -152 -513 34 -881 121 -1304 308 -553 245 -990 574 -1339
1009 -177 220 -379 548 -480 779 -312 715 -387 1527 -210 2293 156 676 481
1246 996 1748 264 257 531 448 870 622 377 193 817 329 1208 373 108 12 472
28 525 23 17 -2 82 -6 145 -9z"/>
<path d="M4910 8480 c-693 -67 -1376 -357 -1920 -816 -107 -90 -355 -344 -443
-455 -319 -398 -522 -808 -646 -1304 -78 -313 -106 -583 -98 -929 8 -306 38
-528 112 -812 102 -391 297 -793 542 -1117 338 -446 714 -756 1223 -1007 284
-139 547 -232 822 -289 533 -110 1080 -99 1594 33 498 128 975 375 1374 712
329 278 611 635 811 1029 175 346 266 637 330 1055 27 176 37 572 20 790 -52
672 -330 1352 -764 1870 -116 139 -361 383 -477 476 -259 208 -615 416 -930
542 -219 88 -539 171 -800 207 -136 19 -607 28 -750 15z m-316 -311 c-8 -14
-34 -11 -34 4 0 8 3 17 7 20 9 9 34 -13 27 -24z m1614 -81 c5 -38 -28 -54 -58
-30 -20 16 -21 21 -11 41 18 33 65 26 69 -11z m-567 -120 c10 -18 8 -24 -11
-40 -21 -17 -24 -17 -41 -2 -22 20 -24 35 -7 52 19 19 46 14 59 -10z m-441
-123 c0 -11 9 -39 19 -62 21 -44 64 -73 131 -88 l35 -8 -55 -14 c-68 -18 -104
-51 -120 -111 -20 -78 -22 -79 -34 -22 -20 96 -52 124 -161 143 -12 2 1 9 35
20 81 24 130 86 130 166 0 20 2 23 10 11 5 -8 10 -24 10 -35z m-366 27 c2 -4
0 -14 -5 -22 -8 -13 -10 -13 -18 0 -10 15 -6 30 9 30 5 0 11 -4 14 -8z m-838
-201 c14 -6 31 -11 39 -11 8 0 15 -4 15 -10 0 -5 -11 -10 -24 -10 -33 0 -63
-28 -80 -75 -11 -29 -15 -34 -15 -17 -2 44 -29 80 -73 95 -38 14 -40 16 -15
16 35 1 75 41 84 83 l7 33 18 -46 c12 -28 29 -51 44 -58z m2594 9 c18 0 11
-18 -9 -25 -11 -3 -24 -18 -28 -32 l-9 -26 -13 30 c-6 16 -24 34 -39 40 -26
10 -26 11 -4 12 14 1 29 12 40 30 l16 29 18 -29 c10 -16 22 -29 28 -29z
m-3120 35 c0 -8 -7 -15 -15 -15 -8 0 -15 7 -15 15 0 8 7 15 15 15 8 0 15 -7
15 -15z m2510 -70 c0 -8 -7 -15 -15 -15 -8 0 -15 7 -15 15 0 8 7 15 15 15 8 0
15 -7 15 -15z m1175 -67 l26 -12 -30 -12 c-19 -8 -33 -23 -37 -40 l-7 -27 -16
34 c-10 21 -25 35 -39 37 -31 5 -28 15 8 29 19 7 30 18 30 30 0 33 13 35 26 3
7 -16 25 -35 39 -42z m-2635 -18 c0 -11 -4 -20 -9 -20 -14 0 -23 18 -16 30 10
17 25 11 25 -10z m-1312 -52 c-6 -18 -28 -21 -28 -4 0 9 7 16 16 16 9 0 14 -5
12 -12z m1682 -53 c0 -8 -4 -15 -10 -15 -5 0 -10 7 -10 15 0 8 5 15 10 15 6 0
10 -7 10 -15z m628 -187 c-6 -18 -28 -21 -28 -4 0 9 7 16 16 16 9 0 14 -5 12
-12z m-2014 -87 l29 -14 -32 -13 c-19 -8 -37 -26 -44 -44 l-13 -30 -13 35 c-9
25 -20 37 -39 41 -44 11 -47 16 -11 28 24 8 38 21 49 44 l14 33 16 -33 c8 -18
28 -39 44 -47z m1720 -70 c11 -12 27 -21 38 -21 29 0 21 -17 -12 -24 -29 -5
-36 -14 -55 -71 -6 -17 -9 -14 -21 20 -16 43 -28 55 -61 55 -13 0 -23 5 -23
10 0 6 8 10 18 10 34 0 62 30 69 73 l7 42 10 -36 c6 -21 20 -46 30 -58z m766
69 c0 -11 -7 -20 -15 -20 -8 0 -15 9 -15 20 0 11 7 20 15 20 8 0 15 -9 15 -20z
m1486 -45 c11 -43 -34 -73 -64 -43 -13 13 -16 50 -5 61 3 4 19 7 34 7 22 0 30
-6 35 -25z m-1052 -154 c18 -33 40 -48 101 -67 42 -12 41 -13 -33 -33 -49 -14
-78 -51 -89 -115 l-6 -39 -18 57 c-22 72 -42 95 -91 102 -53 9 -55 19 -7 34
39 13 89 60 89 83 0 7 5 30 12 52 l11 40 8 -42 c4 -23 15 -55 23 -72z m-1868
-12 c20 -22 13 -43 -19 -63 -13 -8 -22 -6 -39 11 -19 19 -20 26 -10 48 14 30
42 32 68 4z m-1776 -29 c0 -11 -7 -20 -15 -20 -8 0 -15 9 -15 20 0 11 7 20 15
20 8 0 15 -9 15 -20z m4167 -102 c10 -11 31 -26 48 -33 l30 -13 -28 -1 c-34
-1 -77 -41 -78 -73 -1 -22 -1 -22 -12 4 -20 44 -48 68 -81 68 -31 1 -31 1 13
22 32 16 48 32 60 59 16 37 16 37 23 12 4 -14 15 -34 25 -45z m-2963 9 c37
-27 -2 -96 -41 -71 -32 20 -39 41 -19 63 22 24 35 26 60 8z m-694 -47 c14 -26
-3 -60 -30 -60 -29 0 -42 32 -24 58 19 27 40 28 54 2z m4416 -121 c23 -26 74
-49 109 -49 39 0 21 -17 -26 -25 -62 -11 -100 -50 -114 -120 l-11 -58 -18 66
c-21 78 -43 101 -116 120 -39 11 -47 15 -27 16 76 3 127 49 148 134 l12 52 12
-57 c6 -32 20 -67 31 -79z m-1954 46 c10 -22 9 -29 -10 -48 -17 -17 -26 -19
-39 -11 -32 20 -39 41 -19 63 26 28 54 26 68 -4z m-3180 -151 c11 -23 10 -29
-10 -45 -28 -22 -50 -15 -58 17 -13 51 47 75 68 28z m1014 -135 c8 -9 31 -20
50 -23 44 -9 44 -22 -1 -30 -41 -8 -72 -44 -81 -94 l-7 -36 -13 43 c-17 57
-39 79 -93 93 l-44 11 46 12 c59 15 74 28 89 77 l12 40 13 -38 c7 -21 20 -45
29 -55z m1758 70 c244 -48 456 -313 456 -570 0 -171 -54 -305 -169 -420 -161
-161 -394 -225 -583 -160 -151 52 -248 125 -328 247 -70 107 -95 194 -95 329
1 119 13 171 67 279 56 112 184 223 314 272 109 41 211 48 338 23z m1166 -83
c6 -8 10 -25 8 -38 -6 -42 -78 -32 -78 11 0 37 46 55 70 27z m540 -132 c0 -8
-7 -14 -15 -14 -15 0 -21 21 -9 33 10 9 24 -2 24 -19z m870 2 c0 -22 -11 -46
-21 -46 -12 0 -31 39 -24 50 9 15 45 12 45 -4z m-5012 -59 c2 -12 -3 -17 -17
-17 -12 0 -21 6 -21 13 0 31 32 34 38 4z m1417 3 c0 -22 -29 -18 -33 3 -3 14
1 18 15 15 10 -2 18 -10 18 -18z m-926 -44 c16 -19 -4 -59 -26 -54 -26 5 -39
34 -24 52 17 20 35 20 50 2z m-769 -61 c26 -8 25 -18 -2 -30 -13 -6 -24 -20
-26 -32 -4 -28 -22 -31 -22 -4 0 21 -16 37 -45 43 -17 3 -16 6 11 21 19 9 35
28 39 44 l8 28 8 -32 c5 -18 18 -34 29 -38z m4110 -26 c0 -20 -24 -26 -35 -9
-4 6 -4 17 -1 25 7 20 36 7 36 -16z m-2678 -414 c2 -11 14 -25 27 -31 23 -12
23 -12 2 -19 -11 -3 -24 -17 -27 -31 -8 -31 -20 -31 -28 0 -3 13 -16 27 -28
30 l-23 7 23 9 c14 6 25 21 29 40 6 32 18 30 25 -5z m3552 29 c23 -9 21 -61
-4 -74 -16 -8 -24 -6 -40 10 -20 20 -19 29 3 58 11 14 18 15 41 6z m-1084 -59
c0 -8 -4 -15 -10 -15 -5 0 -10 7 -10 15 0 8 5 15 10 15 6 0 10 -7 10 -15z
m427 -171 c3 -8 1 -20 -6 -27 -14 -14 -47 15 -37 32 10 16 36 13 43 -5z m1155
-58 l22 -16 -22 -16 c-13 -9 -27 -26 -32 -38 -8 -20 -8 -20 -19 7 -6 16 -20
31 -31 34 -26 7 -26 20 1 28 11 4 25 19 31 33 10 26 10 26 18 6 5 -12 19 -29
32 -38z m-5534 11 c4 -20 -25 -34 -40 -19 -15 15 -1 44 19 40 10 -2 19 -11 21
-21z m2880 -331 c-4 -28 -34 -32 -47 -7 -9 15 -7 23 5 36 20 20 46 2 42 -29z
m-1794 15 c9 -14 -4 -41 -20 -41 -8 0 -14 10 -14 25 0 25 23 35 34 16z m4222
-60 c-9 -14 -33 -14 -41 -1 -4 6 -1 18 6 26 11 13 14 13 27 0 8 -8 11 -19 8
-25z m-2941 -6 c0 -11 -8 -21 -17 -23 -14 -3 -18 3 -18 23 0 20 4 26 18 23 9
-2 17 -12 17 -23z m1815 -134 c0 -6 -4 -13 -10 -16 -5 -3 -10 1 -10 9 0 9 5
16 10 16 6 0 10 -4 10 -9z m-1466 -176 c12 -10 116 -113 233 -227 176 -173
216 -208 240 -208 16 0 43 -10 59 -22 45 -34 444 -420 444 -430 0 -11 -225
169 -338 270 -69 63 -192 152 -207 152 -3 0 -2 -15 1 -32 6 -37 6 -38 -59 52
-34 47 -142 142 -197 174 l-32 18 7 -33 c4 -19 18 -65 31 -103 26 -77 25 -97
-2 -44 -9 18 -32 60 -52 93 -19 33 -51 87 -70 120 -19 33 -68 112 -108 175
-41 65 -76 132 -80 154 l-7 39 58 -64 c32 -35 68 -73 79 -84z m-2379 45 c8
-26 -1 -40 -26 -40 -22 0 -34 22 -25 45 8 22 44 18 51 -5z m5285 -5 c15 -18 5
-35 -21 -35 -12 0 -19 7 -19 18 0 33 20 42 40 17z m-1932 -51 c1 -1 -10 -15
-25 -31 l-28 -30 -27 29 -27 29 27 24 27 24 25 -22 c14 -12 26 -22 28 -23z
m-1943 -21 c28 -33 31 -43 10 -43 -8 0 -15 -3 -15 -7 0 -5 -4 -14 -8 -21 -7
-10 -16 -6 -38 14 l-30 27 26 27 c14 15 26 28 28 29 2 0 14 -11 27 -26z m3013
-104 c37 -33 101 -79 142 -101 54 -30 107 -73 188 -152 171 -168 147 -160 -81
27 -52 42 -102 77 -111 77 -19 0 -18 -4 15 -100 22 -64 19 -61 -73 79 -35 52
-68 96 -74 98 -6 2 -15 -14 -21 -34 l-10 -38 -2 36 c0 20 -14 63 -31 95 -16
32 -30 62 -30 67 0 19 27 2 88 -54z m-3961 -113 c32 -41 75 -102 96 -136 31
-48 43 -60 57 -55 25 8 54 -8 113 -61 88 -79 135 -104 193 -104 53 0 53 0 81
-47 15 -27 49 -81 75 -120 78 -118 53 -108 -42 17 -75 98 -86 106 -147 113
-29 3 -66 13 -82 22 -36 18 -36 19 -16 -31 18 -46 14 -42 -68 76 -62 88 -84
96 -79 32 2 -24 10 -62 18 -84 22 -64 17 -59 -31 30 -25 46 -70 127 -102 180
l-57 97 -20 -45 -21 -45 -6 80 c-3 44 -11 93 -17 108 -29 69 -14 62 55 -27z
m3553 -116 c-17 -33 -39 -75 -50 -92 l-21 -33 7 45 c7 45 7 45 -13 27 -27 -23
-172 -87 -199 -87 -14 0 -49 -32 -104 -95 -46 -52 -90 -97 -98 -100 -8 -3 8
21 35 52 27 32 70 85 95 118 43 57 49 61 105 73 47 9 82 27 159 81 54 38 102
70 107 70 4 1 -6 -26 -23 -59z m1344 23 c-101 -157 -149 -224 -152 -212 -1 8
9 41 23 73 14 32 24 60 22 62 -11 11 -241 -135 -394 -248 -98 -73 -120 -84
-210 -108 -32 -8 -57 -27 -112 -86 -39 -42 -71 -72 -71 -67 0 6 29 49 65 96
51 67 71 87 90 87 42 0 76 19 190 104 150 112 224 157 405 248 85 43 157 78
159 78 2 0 -5 -12 -15 -27z m-6084 -33 c84 -63 374 -240 420 -256 19 -7 52
-13 73 -14 21 0 50 -6 65 -14 40 -21 162 -178 207 -266 22 -43 25 -46 -77 76
-128 154 -144 166 -228 169 -67 3 -74 6 -177 71 -60 38 -129 83 -154 101 -26
18 -49 33 -51 33 -3 0 1 -24 9 -52 24 -94 23 -93 -150 174 -26 39 -12 34 63
-22z m4042 -593 c45 -38 120 -89 166 -115 75 -42 203 -156 237 -212 13 -20
-66 41 -143 112 -55 51 -65 56 -82 46 -16 -10 -22 -10 -32 3 -7 9 -58 52 -114
97 -100 80 -154 134 -154 154 0 13 13 4 122 -85z m1086 15 c-13 -16 -38 -40
-57 -53 -28 -20 -202 -156 -266 -208 -26 -21 32 47 114 134 45 48 82 76 111
88 25 9 59 28 75 42 40 33 52 31 23 -3z m-1373 -98 c-55 -51 -107 -96 -117
-99 -9 -3 -31 3 -50 15 -18 11 -36 20 -40 20 -3 0 -39 -27 -79 -61 -65 -54
-171 -133 -206 -153 -33 -18 -3 10 110 107 67 57 131 114 141 126 24 26 44 26
76 1 14 -11 32 -20 40 -20 8 0 60 36 115 80 55 44 102 79 105 79 3 0 -40 -43
-95 -95z m-1449 -39 l124 -115 40 20 c49 25 68 25 95 0 12 -11 61 -34 109 -51
75 -27 95 -39 134 -83 26 -28 76 -82 112 -120 84 -89 51 -71 -80 44 -111 97
-136 113 -188 125 -32 6 -32 6 -22 -20 6 -15 17 -37 25 -48 8 -12 15 -25 15
-30 0 -16 -21 6 -74 78 -30 40 -59 76 -65 79 -5 4 -25 -3 -43 -14 -18 -11 -38
-20 -43 -20 -10 0 -131 97 -192 154 -29 27 -42 21 -43 -19 -1 -17 -48 105 -50
128 -1 22 35 -4 146 -108z m-257 28 c-60 -67 -131 -121 -136 -105 -3 6 -8 12
-13 12 -7 0 -91 -48 -235 -134 l-30 -18 30 27 c61 54 229 165 250 165 12 0 55
24 96 54 41 29 76 52 78 50 2 -2 -16 -25 -40 -51z m-1014 -32 c96 -74 225
-189 225 -202 0 -13 -193 135 -265 203 -33 32 -55 57 -49 58 6 0 46 -27 89
-59z m408 -573 c48 -29 103 -65 122 -81 86 -69 62 -211 -41 -249 -28 -10 -34
-16 -29 -33 15 -53 15 -82 -2 -115 -27 -51 -76 -80 -137 -80 -44 0 -63 8 -152
61 -56 34 -114 71 -130 84 l-28 22 140 221 c80 128 145 222 154 222 8 0 55
-24 103 -52z m3343 2 c27 -53 114 -424 114 -486 0 -16 -99 -59 -110 -48 -5 5
-27 99 -50 208 -22 110 -42 201 -44 203 -1 2 -47 -24 -102 -56 -97 -59 -99
-60 -119 -41 -11 10 -28 32 -38 49 l-17 29 72 45 c40 24 111 67 158 96 47 28
91 50 99 49 8 -2 25 -23 37 -48z m-2980 -206 c24 -14 44 -28 44 -30 0 -13
-223 -471 -235 -483 -13 -13 -21 -12 -65 9 -27 13 -50 30 -50 37 0 17 217 452
238 476 19 21 15 22 68 -9z m2574 -29 c77 -40 128 -151 116 -254 -4 -31 -21
-105 -39 -165 l-32 -110 -54 -13 c-76 -20 -80 -12 -49 99 15 51 30 100 33 110
6 15 3 15 -35 2 -97 -33 -201 38 -216 148 -19 141 145 251 276 183z m-2389
-46 c42 -13 42 -13 89 -164 17 -55 37 -113 44 -130 16 -34 12 -41 56 100 17
55 35 104 39 108 9 9 75 -6 100 -22 12 -8 7 -35 -31 -168 -64 -220 -107 -356
-117 -366 -5 -5 -26 -4 -48 2 -47 13 -47 13 -108 201 -26 77 -50 140 -56 140
-5 0 -9 -6 -9 -12 0 -19 -78 -220 -89 -231 -13 -13 -100 20 -108 40 -3 8 28
101 70 206 42 106 86 218 97 250 12 31 24 57 27 57 3 0 23 -5 44 -11z m2049
-141 c18 -62 52 -178 76 -257 24 -79 44 -152 44 -162 0 -17 -45 -39 -79 -39
-9 0 -72 50 -141 110 -118 105 -148 126 -137 97 3 -7 17 -68 33 -136 24 -105
26 -124 14 -131 -17 -11 -99 -25 -105 -18 -7 7 -125 510 -125 534 0 13 11 18
65 28 27 6 41 -3 148 -100 65 -58 120 -105 121 -103 2 2 -11 58 -30 124 -19
66 -34 123 -34 127 0 7 77 36 101 37 12 1 24 -27 49 -111z m-1506 -9 c6 -5 5
-45 -4 -104 -7 -56 -9 -100 -4 -105 8 -7 146 -30 152 -25 1 1 10 47 20 101
l17 99 54 3 c30 2 58 -1 62 -5 8 -8 -56 -551 -66 -561 -10 -11 -100 -1 -113
12 -10 10 -11 30 -3 97 17 134 23 123 -71 136 -46 6 -86 8 -89 5 -4 -4 -14
-51 -24 -104 -9 -54 -21 -100 -25 -103 -13 -8 -87 6 -106 19 -15 11 -12 33 31
247 25 129 51 251 56 272 l10 38 47 -7 c26 -3 51 -10 56 -15z m1016 -13 c0
-14 -111 -389 -151 -513 -19 -57 -23 -63 -53 -69 -75 -14 -69 -23 -192 276
-110 266 -112 275 -91 283 11 4 43 7 70 5 l49 -3 63 -159 c35 -87 66 -160 68
-163 3 -2 8 4 11 14 3 10 24 83 46 163 23 80 46 150 52 157 5 7 31 14 56 16
26 2 53 4 60 5 6 1 12 -4 12 -12z m-537 -248 c26 -30 22 -73 -9 -97 -36 -29
-60 -26 -95 9 -35 35 -33 61 8 98 30 27 68 23 96 -10z"/>
<path d="M4873 6209 c-20 -20 -16 -24 27 -23 81 3 88 5 55 14 -16 5 -39 11
-50 15 -11 3 -26 0 -32 -6z"/>
<path d="M5650 6153 c-8 -3 -21 -10 -28 -16 -7 -6 -25 -11 -40 -13 -25 -2
-154 -33 -159 -38 -1 -1 69 -1 156 -1 l158 0 -9 28 c-14 38 -43 53 -78 40z"/>
<path d="M4749 5926 c-14 -8 -30 -26 -37 -40 l-12 -26 158 1 c143 0 154 2 122
14 -19 7 -50 14 -69 14 -20 1 -44 10 -56 21 -28 26 -74 33 -106 16z"/>
<path d="M5567 5744 c-3 -3 -23 -12 -44 -19 -37 -14 -37 -14 47 -14 l85 0 -24
19 c-23 20 -52 26 -64 14z"/>
<path d="M5149 5470 c-14 -4 -35 -13 -48 -19 -12 -7 -43 -15 -69 -17 -25 -3
-47 -6 -49 -8 -8 -7 219 -15 276 -10 63 7 67 24 5 24 -17 0 -37 6 -43 14 -16
19 -41 24 -72 16z"/>
<path d="M3551 2939 l-24 -32 24 -18 c34 -26 76 -42 93 -36 8 3 20 15 26 27
10 19 7 26 -25 56 -45 42 -65 43 -94 3z"/>
<path d="M3437 2765 l-25 -44 56 -35 c31 -19 62 -32 69 -29 12 5 43 53 43 66
0 6 -105 87 -113 87 -3 0 -17 -20 -30 -45z"/>
<path d="M6437 2732 c-38 -42 -10 -96 48 -96 60 0 86 53 45 94 -25 25 -72 26
-93 2z"/>
</g>
</svg>
